<svg width="34" height="40" viewBox="0 0 34 40" fill="none" xmlns="http://www.w3.org/2000/svg">
<path d="M13.6335 5.57894C16.3614 5.53178 19.1058 6.01803 29.0572 9.92133C29.1098 9.95808 29.1627 9.99452 29.2161 10.0306C29.404 10.1579 29.5829 10.2913 29.7601 10.4273C29.7829 10.4447 29.8056 10.4621 29.8291 10.48C29.9614 10.5822 30.0876 10.6871 30.21 10.7964C30.2624 10.8432 30.3156 10.8894 30.3692 10.9354C30.653 11.1814 30.9118 11.4395 31.1638 11.7051C31.2183 11.7625 31.2733 11.8196 31.3284 11.8766C33.1383 13.7745 34.0039 16.1789 34 18.5159C34 18.5502 34 18.5502 33.9999 18.5852C33.9939 21.06 33.0602 23.5104 28.4717 28.8412C28.4196 28.8843 28.368 28.9277 28.3164 28.9711C28.0316 29.2112 27.7435 29.4478 27.4213 29.6587C27.3593 29.7007 27.3022 29.7449 27.2449 29.7906C27.1551 29.8581 27.1551 29.8581 27.0867 29.8581C27.0862 29.8737 27.0857 29.8893 27.0852 29.9055C27.0138 31.9636 26.5417 34.0146 25.4092 38.7235C25.4031 38.7457 25.3971 38.768 25.3909 38.7909C25.2815 39.1931 25.1524 39.5381 24.7275 39.8113C24.4088 39.9681 24.0529 40.0336 23.6791 39.9833C23.2915 39.9124 22.9384 39.7475 22.726 39.4824C22.5872 39.2771 22.5272 39.0956 22.5305 38.8658C22.5307 38.8421 22.5309 38.8184 22.5311 38.794C22.5373 38.4461 22.5717 38.0989 22.604 37.752C22.6098 37.6906 22.6154 37.6292 22.621 37.5678C22.7423 36.251 22.8974 34.9366 23.0926 33.6251C23.0954 33.6063 23.0982 33.5874 23.1011 33.568C23.1622 33.1582 23.2271 32.7487 23.2974 32.3397C23.306 32.2894 23.306 32.2894 23.3148 32.238C23.3202 32.2071 23.3255 32.1762 23.3311 32.1443C23.3358 32.1171 23.3405 32.09 23.3454 32.062C23.3576 32.0018 23.3731 31.9443 23.394 31.8856C23.3639 31.8984 23.3639 31.8984 23.3333 31.9116C22.1127 32.4324 20.8512 32.8575 19.5302 33.2021C19.4929 33.212 19.4555 33.2218 19.417 33.232C17.7152 33.6781 15.9238 33.9796 14.1278 34.0711C14.0856 34.0733 14.0856 34.0733 14.0424 34.0756C11.9331 34.182 9.78069 33.9972 7.83646 33.3338C7.80805 33.3241 7.77963 33.3144 7.75035 33.3045C7.20156 33.1156 6.68901 32.8867 6.19523 32.6228C6.16218 32.6052 6.16218 32.6052 6.12847 32.5873C5.18629 32.0839 4.23771 31.5156 3.52543 30.8168C3.46447 30.7578 3.40054 30.7031 3.33376 30.648C2.21653 29.6897 1.42653 28.45 0.861234 27.2513C0.84903 27.2255 0.836827 27.1997 0.824254 27.1732C0.27778 26.005 -0.00239527 24.7547 1.54252e-05 23.5139C3.60859e-05 23.4939 5.67464e-05 23.474 7.80331e-05 23.4535C0.00108095 23.0936 0.021029 22.7377 0.0748111 22.38C0.080877 22.3388 0.080877 22.3388 0.0870655 22.2967C0.222305 21.4159 0.530822 20.5463 1.0322 19.7469C1.05249 19.714 1.05249 19.714 1.0732 19.6804C1.46165 19.0568 1.97799 18.471 2.53666 17.93C2.56301 17.9045 2.58937 17.879 2.61653 17.8527C2.69157 17.7813 2.76775 17.7108 2.84439 17.6404C2.87229 17.6143 2.90019 17.5882 2.92893 17.5614C3.329 17.1898 3.75838 16.8217 4.23532 16.5077C4.29585 16.4679 4.35575 16.4274 4.41536 16.3868C6.57146 14.9235 9.38426 14.1964 12.2483 14.3314C15.1734 14.4826 17.967 15.4802 20.2141 16.9031C20.2584 16.9304 20.2584 16.9304 20.3036 16.9582C20.5089 17.0855 20.7045 17.2185 20.8973 17.3567C20.9702 17.4089 21.0449 17.4589 21.1207 17.5086C21.3146 17.6387 21.4945 17.7799 21.676 17.9201C21.7376 17.9678 21.7995 18.0153 21.8614 18.0628C22.0604 18.2159 22.2553 18.3697 22.4366 18.5356C22.4698 18.5651 22.5031 18.5945 22.5365 18.6239C23.1117 19.1352 23.6369 19.6781 24.112 20.2472C24.1297 20.2684 24.1475 20.2896 24.1658 20.3115C24.4682 20.6753 24.7409 21.0495 25.001 21.4321C25.0171 21.4556 25.0332 21.4791 25.0498 21.5033C26.0482 22.9651 26.5865 24.5439 26.8816 26.1717C27.3864 25.6597 27.843 25.1271 28.2493 24.5655C28.2653 24.5434 28.2814 24.5214 28.2979 24.4986C29.4419 22.9231 30.163 21.284 30.3692 19.4836C30.3741 19.4417 30.3741 19.4417 30.3791 19.399C30.4098 19.0992 30.4109 18.7993 30.4116 18.4987C30.4119 18.4084 30.413 18.318 30.4141 18.2277C30.4174 17.6985 30.3547 17.1775 30.2111 16.6595C30.1981 16.6125 30.1981 16.6125 30.1849 16.5644C30.0176 15.9797 29.7638 15.4212 29.446 14.8756C29.4329 14.8527 29.4199 14.8298 29.4064 14.8062C29.073 14.2246 28.6421 13.6723 28.1467 13.1641C28.132 13.1488 28.1173 13.1336 28.1022 13.1179C27.7013 12.7034 27.2568 12.3159 26.7824 11.9506C26.7321 11.9118 26.6821 11.8728 26.6321 11.8338C26.419 11.6687 26.1954 11.5181 25.9584 11.3736C25.9163 11.3469 25.8742 11.3202 25.8323 11.2933C25.3677 10.9999 24.8701 10.7379 24.3513 10.5046C24.33 10.495 24.3086 10.4853 24.2865 10.4754C23.0194 9.9082 21.6618 9.52481 20.2141 9.34605C20.1792 9.3417 20.1442 9.33736 20.1083 9.33287C19.0728 9.21021 17.965 9.2161 16.9316 9.34605C16.8954 9.35057 16.8592 9.35509 16.8219 9.35975C15.5454 9.52513 14.4212 9.93416 13.4242 10.5651C12.5734 11.1015 11.5349 11.3991 10.4287 11.3152C9.60507 11.2374 8.88395 10.8911 8.37499 10.3927C7.7684 9.77158 7.58754 9.01509 7.722 8.25053C7.87824 7.52739 8.40417 6.93193 9.16996 6.50228C10.4709 5.79993 12.0768 5.61025 13.6335 5.57894ZM10.5035 17.1138C10.4745 17.12 10.4455 17.1261 10.4156 17.1325C10.2157 17.1759 10.0174 17.2228 9.81962 17.2717C9.79237 17.2785 9.76512 17.2852 9.73704 17.2921C8.5884 17.5785 7.47764 18.0017 6.53716 18.5883C6.50657 18.6068 6.47598 18.6253 6.44446 18.6444C5.53653 19.2011 4.81959 19.8785 4.28046 20.6685C4.26782 20.6869 4.25518 20.7053 4.24215 20.7243C3.87613 21.2662 3.63604 21.859 3.49404 22.459C3.48572 22.4929 3.48572 22.4929 3.47723 22.5275C3.30442 23.2646 3.31763 24.0932 3.49404 24.8288C3.49991 24.8542 3.50578 24.8796 3.51182 24.9057C3.93485 26.6996 5.15554 28.4383 6.98166 29.6211C7.00949 29.6391 7.00949 29.6391 7.03789 29.6575C7.57937 30.0065 8.14218 30.3053 8.75966 30.569C8.78212 30.5788 8.80459 30.5886 8.82774 30.5986C10.1652 31.1801 11.743 31.4834 13.273 31.5169C13.2987 31.5175 13.3245 31.5181 13.3509 31.5187C15.7567 31.5636 18.0138 30.9763 20.1366 30.1516C20.3882 30.0539 20.6411 29.959 20.8958 29.8663C21.7161 29.566 22.5339 29.2352 23.2617 28.8132C23.3256 28.7785 23.3256 28.7785 23.4082 28.745C23.5052 28.7005 23.5658 28.6643 23.6333 28.5942C23.6754 28.4438 23.6673 28.2978 23.659 28.1449C23.6576 28.1009 23.6563 28.0569 23.6551 28.0128C23.6419 27.6164 23.6013 27.2228 23.5307 26.83C23.5275 26.8119 23.5243 26.7939 23.5209 26.7753C23.1363 24.6576 22.1007 22.563 20.4192 20.8528C20.3891 20.8218 20.359 20.7908 20.3289 20.7598C20.0594 20.4844 19.7688 20.2226 19.4675 19.9676C19.4184 19.9261 19.3698 19.8842 19.3216 19.8421C19.025 19.5838 18.7107 19.3368 18.3677 19.1149C18.336 19.0937 18.3042 19.0725 18.2715 19.0506C16.4215 17.8185 14.1791 17.0861 11.7344 16.9821C11.6961 16.98 11.6961 16.98 11.6571 16.978C11.255 16.9567 10.8876 17.0316 10.5035 17.1138Z" fill="#D4AF37"/>
<path d="M19.0115 0.0797307C19.1442 0.142687 19.2646 0.217207 19.3862 0.292364C19.4331 0.320882 19.4801 0.349362 19.5271 0.377812C19.6053 0.425176 19.6835 0.472594 19.7614 0.520208C19.9126 0.612467 20.065 0.703125 20.2194 0.792112C20.9646 1.22233 20.9646 1.22233 21.0554 1.48843C21.1068 1.81699 21.0287 2.03455 20.7737 2.30075C20.7338 2.34026 20.6935 2.37958 20.653 2.4187C20.6319 2.4394 20.6108 2.4601 20.589 2.48143C20.5475 2.52215 20.5058 2.56279 20.4641 2.60335C20.417 2.64928 20.3707 2.69552 20.3248 2.74222C20.1348 2.93413 19.9422 3.11327 19.6246 3.16291C19.1904 3.1981 18.9209 3.11409 18.5899 2.90543C18.5238 2.86292 18.458 2.82019 18.3922 2.7774C18.3041 2.72094 18.2131 2.66774 18.1215 2.61472C17.8107 2.43446 17.5039 2.25047 17.2035 2.05977C17.1402 2.01876 17.1402 2.01876 17.0697 1.99343C17.0543 2.02577 17.0388 2.05812 17.0229 2.09144C16.9284 2.25736 16.7837 2.3921 16.6393 2.53257C16.5776 2.59309 16.5177 2.65457 16.4577 2.71613C16.4149 2.75998 16.3717 2.80356 16.3283 2.84708C16.284 2.89168 16.2401 2.93654 16.1973 2.98205C16.0336 3.14788 15.7997 3.23638 15.5368 3.26923C15.1008 3.29591 14.8065 3.11768 14.4786 2.92038C14.4532 2.90512 14.4277 2.88986 14.4015 2.87414C14.3257 2.82869 14.2499 2.78317 14.1742 2.73765C14.134 2.71352 14.0937 2.6894 14.0535 2.66528C13.9817 2.62226 13.91 2.5792 13.8383 2.53612C13.7628 2.49074 13.6872 2.4454 13.6116 2.40011C13.5917 2.38821 13.5719 2.37631 13.5514 2.36405C13.4964 2.33111 13.4414 2.29818 13.3864 2.26524C13.3541 2.24571 13.3218 2.22619 13.2885 2.20606C13.2581 2.18808 13.2276 2.17009 13.1963 2.15156C12.9997 2.02117 12.8994 1.83869 12.871 1.64063C12.8468 1.25361 13.1372 1.00575 13.4335 0.722381C13.4872 0.669988 13.5386 0.616848 13.5891 0.562516C13.7982 0.3376 13.9955 0.182804 14.3445 0.10631C14.8235 0.0659805 15.0829 0.194363 15.4491 0.419004C15.5367 0.472624 15.6252 0.525261 15.7135 0.57809C15.7504 0.600302 15.7873 0.622521 15.8242 0.644746C15.9127 0.697985 16.0015 0.750955 16.0904 0.803805C16.3511 0.958872 16.611 1.11437 16.8653 1.27579C16.8746 1.26024 16.8838 1.24468 16.8933 1.22866C17.052 0.981705 17.2705 0.773902 17.4911 0.559246C17.5383 0.513112 17.5849 0.46667 17.631 0.419861C17.9862 0.0624412 18.4469 -0.113781 19.0115 0.0797307Z" fill="#D4AF37"/>
</svg>
